
        <svg xmlns="http://www.w3.org/2000/svg" xmlns:xlink="http://www.w3.org/1999/xlink" version="1.1" width="3162.1621621621625" height="989.3945734047061" viewBox="0 0 3162.1621621621625 989.3945734047061">
			
			<g transform="scale(8.108108108108109) translate(10, 10)">
				<defs id="SvgjsDefs4968"><linearGradient id="SvgjsLinearGradient4973"><stop id="SvgjsStop4974" stop-color="#905e26" offset="0"/><stop id="SvgjsStop4975" stop-color="#f5ec9b" offset="0.5"/><stop id="SvgjsStop4976" stop-color="#905e26" offset="1"/></linearGradient></defs><g id="SvgjsG4969" featureKey="symbolFeature-0" transform="matrix(2.023308522827479,0,0,2.023308522827479,-0.48557428660630175,-1.1978816327774993)" fill="#fff">    <title xmlns="http://www.w3.org/2000/svg">Shape 26</title>    <g xmlns="http://www.w3.org/2000/svg" id="Page-1" stroke-width="1" fill-rule="evenodd">        <g id="Artboard" transform="translate(-457.000000, -1115.000000)" fill-rule="nonzero">            <g id="Shape-26" transform="translate(457.240000, 1115.592000)">                <path d="M0,0 L49.424,0 L49.424,49.424 L15.526,49.424 L9.524,45.106 L38.445,45.106 L38.445,40.313 L45.104,45.106 L45.104,4.321 L4.321,4.321 L4.321,49.425 L0.001,49.425 L0.001,0 L0,0 Z M22.66,40.381 L41.256,17.49 L41.256,11.814 L37.651,9.218 L37.651,14.036 L16.254,40.38 L22.66,40.38 L22.66,40.381 Z M10.688,14.547 L15.303,17.871 L26.966,17.871 L29.657,14.547 L10.688,14.547 L10.688,14.547 Z" id="Shape" stroke="none"/>            </g>        </g>    </g></g><g id="SvgjsG4970" featureKey="vMvB0T-0" transform="matrix(2.960682590575582,0,0,2.960682590575582,117.80909520767966,11.702983510241225)" fill="#fff"><path d="M1.14 16.9 l4.44 -6.1 q0.68 -0.98 1.62 -1.98 l-0.06 -0.06 q-1.42 0.18 -3.1 0.18 l-2.86 0 q-0.12 -0.46 -0.12 -1.11 t0.22 -1.49 l8.86 0 q0.44 1.66 0.44 2.11 t-0.36 0.97 l-4.46 6.12 q-0.68 0.96 -1.56 1.88 l0.06 0.06 q2 -0.14 3 -0.14 l1.12 0 q1.2 0 2.24 -0.46 q0.22 0.7 0.22 1.48 t-0.57 1.21 t-1.53 0.43 l-7.64 0 q-0.36 -1.6 -0.36 -2.07 t0.4 -1.03 z M16.26 15.96 l-0.02 1.44 l0 0.02 q0.92 -0.04 1.48 -0.04 l4.64 0 q0 0.74 -0.06 1.14 q-0.24 1.54 -2.04 1.54 l-5.32 0 q-0.86 0 -1.35 -0.5 t-0.49 -1.36 l0 -11.72 l0.14 -0.14 l8.62 0 q0.12 0.58 0.12 1.26 t-0.28 1.42 l-5.46 0 l0.02 1.44 l0 1.4 q0.52 -0.02 1.36 -0.02 l3.06 0 q0.18 0.56 0.18 1.28 t-0.18 1.32 l-4.42 0 l0 1.52 z M35.34 6.2 l0.14 0.14 l0 13.6 q-0.8 0.18 -1.89 0.18 t-1.93 -0.12 l-3.14 -7.16 q-0.56 -1.22 -1.14 -2.82 l-0.06 0.02 q0.24 2.92 0.24 5.98 l0 3.98 q-0.62 0.12 -1.5 0.12 t-1.48 -0.12 l0 -13.6 q0.76 -0.18 1.83 -0.18 t1.91 0.12 l3.1 7.14 q0.84 1.98 1.24 3.04 l0.08 -0.04 q-0.24 -2.78 -0.24 -5.9 l0 -2.44 q0 -1.04 0.42 -1.49 t1.36 -0.45 l1.06 0 z M43.28 15.72 l-1.58 0 l0 4.28 q-0.64 0.12 -1.6 0.12 q-0.98 0 -1.6 -0.12 l0 -13.56 l0.14 -0.14 q1.74 -0.04 2.89 -0.06 t1.75 -0.02 q1.1 0 2.01 0.3 t1.55 0.9 t0.99 1.49 t0.35 2.05 t-0.36 2.05 t-1 1.49 t-1.55 0.91 t-1.99 0.31 z M41.7 8.66 l0 4.66 q0.56 -0.02 0.89 -0.03 t0.43 -0.01 q0.54 0 0.9 -0.19 t0.58 -0.5 t0.32 -0.73 t0.1 -0.88 q0 -0.44 -0.1 -0.86 t-0.31 -0.74 t-0.55 -0.51 t-0.8 -0.19 l-0.82 0 t-0.64 -0.02 z M57.78 11.64 l-0.02 -1.48 l0 -3.82 q0.62 -0.12 1.61 -0.12 t1.59 0.12 l0 13.66 q-0.64 0.12 -1.6 0.12 t-1.6 -0.12 l0 -4.24 l0.02 -1.48 l-1 0.02 l-2.32 0 l-1 -0.02 l0.02 1.48 l0 4.24 q-0.62 0.12 -1.6 0.12 t-1.6 -0.12 l0 -13.66 q0.62 -0.12 1.6 -0.12 t1.6 0.12 l0 3.82 l-0.02 1.48 l1 -0.02 l2.32 0 z M73.8 10.56 q0 0.66 -0.2 1.25 t-0.53 1.06 t-0.78 0.82 t-0.93 0.53 q1.04 0.38 1.54 1.84 l0.6 1.7 q0.34 1 1 1.48 q-0.3 0.4 -0.9 0.67 t-1.32 0.27 t-1.12 -0.41 t-0.74 -1.43 l-0.72 -2.1 q-0.22 -0.6 -0.59 -0.92 t-1.11 -0.32 l-0.82 0 l0 5 q-0.64 0.12 -1.6 0.12 t-1.58 -0.12 l0 -13.56 l0.14 -0.14 q1.74 -0.04 2.93 -0.06 t1.87 -0.02 q1.1 0 2 0.27 t1.53 0.81 t0.98 1.36 t0.35 1.9 z M67.18 8.62 l0 3.92 q0.9 0 1.54 -0.03 t1.03 -0.24 t0.59 -0.59 t0.2 -1.1 q0 -1.94 -1.88 -1.94 l-0.83 0 t-0.65 -0.02 z M80.84 9.72 l1.34 -3.38 q0.52 -0.12 1.34 -0.12 q0.88 0 1.52 0.24 l0.14 0.16 l-3.88 9.18 l0 4.2 q-0.62 0.12 -1.6 0.12 t-1.6 -0.12 l0 -4.28 l-3.86 -9 q0.92 -0.54 1.76 -0.54 t1.21 0.29 t0.65 0.99 l0.96 2.38 q0.52 1.28 0.9 2.86 l0.12 0 q0.32 -1.26 1 -2.98 z"/></g>
			</g>
		</svg>
	